<?xml version="1.0" standalone="no"?><!DOCTYPE svg PUBLIC "-//W3C//DTD SVG 1.1//EN" "http://www.w3.org/Graphics/SVG/1.1/DTD/svg11.dtd"><svg t="1695806390250" class="icon" viewBox="0 0 1024 1024" version="1.1" xmlns="http://www.w3.org/2000/svg" p-id="7166" xmlns:xlink="http://www.w3.org/1999/xlink" width="200" height="200"><path d="M532.489074 858.033721l0-40.810989c137.334111 4.059607 245.510692 48.094401 245.510692 101.896131 0 56.500175-119.042 104.881136-265.952007 104.881136s-265.952007-48.380961-265.952007-104.881136c0-53.80173 108.200462-97.860404 245.486812-101.896131l0 40.810989c-114.671953 2.817845-204.556424 29.085889-204.556424 61.085143 0 33.885777 100.726009 66.482032 225.021618 66.482032 124.247849 0 224.997738-32.620135 224.997738-66.482032-0.04776-31.999254-89.884471-58.219538-204.556424-61.085143zM287.336583 225.021618c0-124.247849 103.281173-225.021618 227.624542-225.021618 124.295609 0 225.021618 100.773769 225.021618 225.021618 0 106.791539-74.481845 196.055129-174.348173 219.099368l-53.63457 541.55155-53.80173-543.055992c-96.761923-25.193442-170.885567-112.90483-170.885567-217.571045zM512 164.748397c0-33.909657-27.485926-61.371703-61.371703-61.371703-33.909657 0-61.419463 27.438166-61.419463 61.371703 0 33.885777 27.485926 61.371703 61.419463 61.371703s61.371703-27.438166 61.371703-61.371703z" fill="#1296db" p-id="7167"></path></svg>